<?xml version="1.0" encoding="UTF-8" standalone="no"?><!DOCTYPE svg PUBLIC "-//W3C//DTD SVG 1.1//EN" "http://www.w3.org/Graphics/SVG/1.1/DTD/svg11.dtd"><svg width="391px" height="57px" viewBox="0 0 391 57" version="1.1" xmlns="http://www.w3.org/2000/svg" xmlns:xlink="http://www.w3.org/1999/xlink" xml:space="preserve" xmlns:serif="http://www.serif.com/" style="fill-rule:evenodd;clip-rule:evenodd;stroke-linejoin:round;stroke-miterlimit:2;"><g id="Level"></g><rect id="Artboard18" x="0" y="0" width="390.522" height="56.953" style="fill:none;"/><clipPath id="_clip1"><rect x="0" y="0" width="390.522" height="56.953"/></clipPath><g clip-path="url(#_clip1)"><g><path d="M390.691,4.376c0,-2.296 -1.864,-4.16 -4.159,-4.16l-53.902,0c-2.295,0 -4.159,1.864 -4.159,4.16l0,48.634c0,2.296 1.864,4.16 4.159,4.16l53.902,-0c2.295,-0 4.159,-1.864 4.159,-4.16l0,-48.634Z" style="fill:#d5d5d5;"/><path d="M388.173,6.06c-0,-1.953 -1.586,-3.538 -3.539,-3.538l-50.106,-0c-1.953,-0 -3.539,1.585 -3.539,3.538l0,45.266c0,1.953 1.586,3.538 3.539,3.538l50.106,0c1.953,0 3.539,-1.585 3.539,-3.538l-0,-45.266Z" style="fill:#fff;"/><path d="M389.174,6.06c-0,-2.505 -2.035,-4.539 -4.54,-4.539c0,-0 -50.106,-0 -50.106,-0c-2.505,-0 -4.54,2.034 -4.54,4.539l0,45.266c0,2.505 2.035,4.539 4.54,4.539c-0,0 50.106,0 50.106,0c2.505,0 4.54,-2.034 4.54,-4.539c-0,-0 -0,-45.266 -0,-45.266Zm-1.001,0c-0,-1.953 -1.586,-3.538 -3.539,-3.538l-50.106,-0c-1.953,-0 -3.539,1.585 -3.539,3.538l0,45.266c0,1.953 1.586,3.538 3.539,3.538l50.106,0c1.953,0 3.539,-1.585 3.539,-3.538l-0,-45.266Z" style="fill-opacity:0.05;"/><path d="M386.282,7.557c-0,-1.824 -1.481,-3.304 -3.305,-3.304l-46.792,-0c-1.824,-0 -3.305,1.48 -3.305,3.304l0,42.272c0,1.824 1.481,3.305 3.305,3.305l46.792,-0c1.824,-0 3.305,-1.481 3.305,-3.305l-0,-42.272Z" style="fill:url(#_Linear2);"/><g><path d="M0.169,20.888c-0,-2.18 1.77,-3.95 3.95,-3.95l23.443,-0c1.14,-0 1.489,0.455 2.638,1.803l11.181,11.512c0.503,0.539 0.811,0.893 0.826,1.608l0,0.035c0,0.501 -0.01,1.793 -0,2.274l0,0.034c0,0.739 -0.315,1.096 -0.826,1.643l-11.181,11.512c-1.149,1.348 -1.498,1.803 -2.638,1.803l-23.443,0c-2.18,0 -3.95,-1.77 -3.95,-3.95l-0,-24.324Z" style="fill-opacity:0.1;"/><path d="M0.169,20.082c-0,-2.18 1.77,-3.95 3.95,-3.95l23.443,-0c1.14,-0 1.489,0.455 2.638,1.802l11.181,11.513c0.503,0.539 0.811,0.893 0.826,1.608l0,0.035c0,0.739 -0.315,1.095 -0.826,1.643l-11.181,11.512c-1.149,1.347 -1.498,1.803 -2.638,1.803l-23.443,-0c-2.18,-0 -3.95,-1.77 -3.95,-3.95l-0,-22.016Z" style="fill:#eee;"/><path d="M0.169,20.082c-0,-2.18 1.77,-3.95 3.95,-3.95l23.443,-0c1.14,-0 1.489,0.455 2.638,1.802l11.181,11.513c0.503,0.539 0.811,0.893 0.826,1.608l0,0.035c0,0.739 -0.315,1.095 -0.826,1.643l-11.181,11.512c-1.149,1.347 -1.498,1.803 -2.638,1.803l-23.443,-0c-2.18,-0 -3.95,-1.77 -3.95,-3.95l-0,-22.016Zm27.047,-0.857c0.173,0.193 0.423,0.475 0.63,0.717c0.043,0.051 0.088,0.1 0.135,0.148l10.684,11l-10.684,11c-0.047,0.047 -0.092,0.097 -0.135,0.148c-0.207,0.242 -0.457,0.523 -0.63,0.716l-23.097,0c-0.473,0 -0.857,-0.384 -0.857,-0.856c0,-0 0,-22.016 0,-22.016c0,-0.473 0.384,-0.857 0.857,-0.857l23.097,0Z" style="fill:#fff;"/><path d="M0.169,20.082c-0,-2.18 1.77,-3.95 3.95,-3.95l23.443,-0c1.14,-0 1.489,0.455 2.638,1.802l11.181,11.513c0.503,0.539 0.811,0.893 0.826,1.608l0,0.035c0,0.739 -0.315,1.095 -0.826,1.643l-11.181,11.512c-1.149,1.347 -1.498,1.803 -2.638,1.803l-23.443,-0c-2.18,-0 -3.95,-1.77 -3.95,-3.95l-0,-22.016Zm40.941,11.008l-0,-0c-0,0.414 -0.239,0.582 -0.524,0.887c0.001,-0.002 -11.173,11.503 -11.173,11.503c-0.017,0.017 -0.033,0.035 -0.048,0.053c-0.329,0.385 -0.588,0.695 -0.82,0.938c-0.318,0.333 -0.537,0.479 -0.983,0.479c-0,0 -23.443,0 -23.443,0c-1.575,0 -2.853,-1.278 -2.853,-2.852c-0,-0 -0,-22.016 -0,-22.016c-0,-1.575 1.278,-2.853 2.853,-2.853l23.443,0c0.446,0 0.665,0.146 0.983,0.479c0.232,0.244 0.491,0.553 0.82,0.939c0.015,0.018 0.031,0.035 0.048,0.052l11.174,11.505c0.283,0.302 0.514,0.471 0.523,0.875l0,0.011Z" style="fill:#999;"/></g><path d="M131.888,50.762c-4.516,-0 -8.603,-0.588 -12.261,-1.764c-3.657,-1.176 -6.624,-2.752 -8.901,-4.73c-2.277,-1.979 -4.012,-4.19 -5.207,-6.635c-1.194,-2.444 -1.791,-4.991 -1.791,-7.641c-0,-2.65 0.606,-5.197 1.819,-7.642c1.213,-2.445 2.949,-4.656 5.207,-6.634c2.258,-1.978 5.216,-3.564 8.873,-4.759c3.658,-1.194 7.67,-1.791 12.037,-1.791c4.366,0 8.229,0.541 11.588,1.624c3.359,1.082 6.065,2.556 8.118,4.422c4.18,3.807 6.27,8.323 6.27,13.548c-0,2.65 -0.569,5.244 -1.708,7.782c-1.138,2.538 -2.761,4.842 -4.87,6.914c-2.109,2.071 -4.824,3.769 -8.146,5.094c-3.321,1.325 -6.998,2.062 -11.028,2.212Zm-42.1,-4.535c-0.037,0.821 -0.392,1.577 -1.064,2.267c-0.671,0.691 -1.567,1.073 -2.687,1.148c-2.127,0.149 -4.684,0.224 -7.669,0.224c-2.986,-0 -5.729,-0.075 -8.23,-0.224c-1.12,-0.075 -2.015,-0.457 -2.687,-1.148c-0.672,-0.69 -1.027,-1.446 -1.064,-2.267c-0.112,-5.673 -0.168,-10.516 -0.168,-14.528c0,-4.012 0.019,-6.951 0.056,-8.817c0,-1.418 -0.634,-2.127 -1.903,-2.127l-5.039,-0c-0.783,-0 -1.418,-0.187 -1.903,-0.56c-0.485,-0.374 -0.756,-1.027 -0.812,-1.96c-0.056,-0.933 -0.084,-1.903 -0.084,-2.911c0,-1.008 0.028,-1.875 0.084,-2.603c0.056,-0.728 0.355,-1.288 0.896,-1.68c0.541,-0.391 1.129,-0.587 1.763,-0.587c4.852,-0.075 11.421,-0.112 19.706,-0.112c8.286,-0 14.22,0.037 17.803,0.112c0.635,0.037 1.222,0.242 1.764,0.615c0.541,0.374 0.839,0.924 0.895,1.652c0.056,0.728 0.084,1.577 0.084,2.547c0,0.971 -0.018,1.904 -0.056,2.799c-0.112,1.68 -1.026,2.52 -2.743,2.52l-5.038,-0c-1.269,-0 -1.904,0.653 -1.904,1.959c0.112,4.703 0.168,8.957 0.168,12.764c0,3.807 -0.056,7.446 -0.168,10.917Zm105.305,-0c-0.038,0.821 -0.392,1.577 -1.064,2.267c-0.672,0.691 -1.568,1.073 -2.687,1.148c-2.128,0.149 -4.684,0.224 -7.67,0.224c-2.986,-0 -5.729,-0.075 -8.229,-0.224c-1.12,-0.075 -2.016,-0.457 -2.688,-1.148c-0.671,-0.69 -1.026,-1.446 -1.063,-2.267c-0.112,-5.673 -0.168,-10.516 -0.168,-14.528c-0,-4.012 0.018,-6.951 0.056,-8.817c-0,-1.418 -0.635,-2.127 -1.904,-2.127l-5.038,-0c-0.784,-0 -1.418,-0.187 -1.904,-0.56c-0.485,-0.374 -0.755,-1.027 -0.811,-1.96c-0.056,-0.933 -0.084,-1.903 -0.084,-2.911c-0,-1.008 0.028,-1.875 0.084,-2.603c0.056,-0.728 0.354,-1.288 0.895,-1.68c0.541,-0.391 1.129,-0.587 1.764,-0.587c4.852,-0.075 11.42,-0.112 19.706,-0.112c8.285,-0 14.22,0.037 17.803,0.112c0.634,0.037 1.222,0.242 1.763,0.615c0.541,0.374 0.84,0.924 0.896,1.652c0.056,0.728 0.084,1.577 0.084,2.547c-0,0.971 -0.019,1.904 -0.056,2.799c-0.112,1.68 -1.027,2.52 -2.743,2.52l-5.039,-0c-1.269,-0 -1.903,0.653 -1.903,1.959c0.112,4.703 0.168,8.957 0.168,12.764c-0,3.807 -0.056,7.446 -0.168,10.917Zm99.09,-22.281l-0.056,11.196c-0,1.642 0.252,2.865 0.756,3.667c0.504,0.803 1.558,1.204 3.163,1.204l14.164,-0c1.716,0.037 2.575,1.343 2.575,3.919c-0,1.978 -0.243,3.415 -0.728,4.31c-0.485,0.896 -1.474,1.363 -2.967,1.4c-5.263,0.149 -10.469,0.224 -15.619,0.224c-5.151,-0 -11.72,-0.037 -19.707,-0.112c-1.343,-0 -2.435,-0.327 -3.275,-0.98c-0.839,-0.653 -1.315,-1.558 -1.427,-2.715c-0.299,-3.247 -0.448,-8.37 -0.448,-15.367c0,-6.998 0.084,-11.72 0.252,-14.164c0.168,-2.445 0.513,-4.068 1.036,-4.871c0.522,-0.802 1.548,-1.203 3.079,-1.203l15.003,-0c1.568,-0 2.603,0.41 3.107,1.231c0.504,0.821 0.812,2.146 0.924,3.975c0.112,1.829 0.168,4.591 0.168,8.286Zm-48.09,-10.861l18.307,30.959c0.746,1.231 1.12,2.267 1.12,3.107c-0,0.839 -0.336,1.465 -1.008,1.875c-0.672,0.411 -1.456,0.616 -2.351,0.616l-18.027,-0c-1.829,-0 -3.004,-0.336 -3.527,-1.008c-0.149,-0.224 -0.355,-0.616 -0.616,-1.175l-1.623,-3.471c-0.486,-1.083 -1.624,-1.699 -3.415,-1.848l-10.581,0c-0.784,0 -1.381,0.075 -1.792,0.224c-0.41,0.149 -0.746,0.485 -1.007,1.008l-2.184,4.534c-0.373,0.672 -0.783,1.129 -1.231,1.372c-0.448,0.243 -1.101,0.364 -1.96,0.364l-5.038,-0c-1.456,-0 -2.24,-0.523 -2.351,-1.568c-0.038,-0.149 -0.056,-0.298 -0.056,-0.447c-0,-0.859 0.279,-1.68 0.839,-2.464l17.523,-30.903c1.68,-2.911 4.404,-4.366 8.174,-4.366l4.478,-0c2.986,-0 5.095,1.063 6.326,3.191Zm-103.121,15.927c0,-1.773 -0.634,-3.322 -1.903,-4.647c-1.269,-1.324 -3.201,-1.987 -5.794,-1.987c-2.594,0 -4.656,0.691 -6.187,2.071c-1.53,1.381 -2.295,3.061 -2.295,5.039c0,1.978 0.803,3.564 2.407,4.759c1.605,1.194 3.537,1.791 5.795,1.791c2.258,-0 4.152,-0.728 5.682,-2.183c1.53,-1.456 2.295,-3.07 2.295,-4.843Zm84.983,-1.595l-2.575,5.094c-0.15,0.336 -0.224,0.635 -0.224,0.896c-0,0.97 0.466,1.455 1.399,1.455l5.095,0c0.783,0 1.325,-0.196 1.623,-0.588c0.299,-0.391 0.448,-0.737 0.448,-1.035c0,-0.299 -0.056,-0.597 -0.168,-0.896l-2.127,-4.814c-0.448,-0.971 -1.027,-1.456 -1.736,-1.456c-0.709,-0 -1.287,0.448 -1.735,1.344Z" style="fill:#fff;fill-rule:nonzero;"/><path d="M159.782,21.838c0.282,0.377 0.603,0.695 0.949,0.961c-0,0 -0,0 -0,0c1.002,0.771 2.287,1.242 3.907,1.242l3.638,-0c-0.026,1.82 -0.038,4.385 -0.038,7.658c-0,4.03 0.056,8.894 0.168,14.593c0.001,0.028 0.002,0.056 0.003,0.084c0.072,1.586 0.693,3.076 1.991,4.41c1.213,1.246 2.803,2 4.824,2.135c0.008,0 0.015,0.001 0.023,0.001c2.56,0.153 5.368,0.23 8.425,0.23c3.074,-0 5.706,-0.078 7.897,-0.232c2.017,-0.136 3.604,-0.889 4.815,-2.134c1.298,-1.334 1.919,-2.824 1.991,-4.41c0.001,-0.014 0.002,-0.029 0.002,-0.043c0.113,-3.505 0.17,-7.179 0.17,-11.023c-0,-3.447 -0.046,-7.26 -0.139,-11.437l3.627,-0c1.846,-0 3.212,-0.593 4.196,-1.496c1.004,-0.922 1.703,-2.247 1.826,-4.091c0.001,-0.027 0.003,-0.055 0.004,-0.082c0.039,-0.939 0.059,-1.918 0.059,-2.936c-0,-1.066 -0.032,-1.999 -0.094,-2.799c-0.14,-1.824 -0.95,-3.169 -2.306,-4.105c-1.054,-0.726 -2.201,-1.118 -3.437,-1.191c-0.041,-0.002 -0.082,-0.004 -0.124,-0.005c-3.597,-0.075 -9.554,-0.112 -17.871,-0.112c-8.295,-0 -14.873,0.037 -19.736,0.112c-1.313,0.005 -2.538,0.398 -3.661,1.212c-1.326,0.96 -2.108,2.305 -2.245,4.089c-0.061,0.798 -0.093,1.75 -0.093,2.855c-0,1.076 0.03,2.112 0.089,3.108c0.022,0.367 0.066,0.711 0.13,1.034c-1.211,-2.404 -2.939,-4.633 -5.19,-6.683c-0,-0.001 -0.001,-0.002 -0.002,-0.002c-2.361,-2.147 -5.456,-3.874 -9.32,-5.119c-3.652,-1.177 -7.849,-1.782 -12.596,-1.782c-4.738,-0 -9.089,0.658 -13.057,1.954c-4.136,1.35 -7.465,3.173 -10.018,5.41c-2.6,2.278 -4.589,4.831 -5.985,7.645c-1.445,2.912 -2.162,5.947 -2.162,9.103c-0,3.149 0.705,6.178 2.125,9.084c1.38,2.824 3.374,5.387 6.004,7.672c2.574,2.237 5.914,4.049 10.051,5.379c3.958,1.272 8.378,1.921 13.266,1.921c0.04,-0 0.081,-0.001 0.121,-0.003c4.432,-0.164 8.472,-0.986 12.125,-2.443c3.769,-1.503 6.838,-3.451 9.231,-5.802c2.412,-2.37 4.263,-5.01 5.566,-7.913c1.334,-2.976 1.995,-6.02 1.995,-9.127c-0,-2.436 -0.379,-4.744 -1.144,-6.922Zm-96.811,2.203c-0.025,1.82 -0.038,4.385 -0.038,7.658c0,4.03 0.056,8.894 0.169,14.593c0,0.028 0.001,0.056 0.002,0.084c0.073,1.586 0.694,3.076 1.992,4.41c1.212,1.246 2.802,2 4.823,2.135c0.008,0 0.016,0.001 0.023,0.001c2.56,0.153 5.369,0.23 8.426,0.23c3.073,-0 5.706,-0.078 7.896,-0.232c2.018,-0.136 3.605,-0.889 4.816,-2.134c1.298,-1.334 1.919,-2.824 1.991,-4.41c0,-0.014 0.001,-0.029 0.002,-0.043c0.113,-3.505 0.169,-7.179 0.169,-11.023c0,-3.447 -0.045,-7.26 -0.139,-11.437l3.627,-0c1.846,-0 3.213,-0.593 4.196,-1.496c1.004,-0.922 1.703,-2.247 1.826,-4.091c0.002,-0.027 0.003,-0.055 0.004,-0.082c0.04,-0.939 0.059,-1.918 0.059,-2.936c0,-1.066 -0.032,-1.999 -0.093,-2.799c-0.141,-1.824 -0.951,-3.169 -2.307,-4.105c-1.053,-0.726 -2.201,-1.118 -3.436,-1.191c-0.041,-0.002 -0.083,-0.004 -0.124,-0.005c-3.597,-0.075 -9.554,-0.112 -17.872,-0.112c-8.294,-0 -14.873,0.037 -19.735,0.112c-1.313,0.005 -2.538,0.398 -3.661,1.212c-1.327,0.96 -2.108,2.305 -2.245,4.089c-0.062,0.798 -0.094,1.75 -0.094,2.855c0,1.076 0.03,2.112 0.09,3.108c0.128,2.13 0.981,3.515 2.088,4.367c0,0 0,0 0,0c1.003,0.771 2.288,1.242 3.907,1.242l3.638,-0Zm161.261,21.382l0.14,0.003c-0,0 10.412,0 10.412,0c0.251,0.033 0.547,0.108 0.699,0.151l1.532,3.274c0.357,0.767 0.653,1.298 0.858,1.606c0.044,0.067 0.091,0.131 0.14,0.195c0.93,1.196 2.865,2.276 6.121,2.276c-0,-0 18.027,-0 18.027,-0c1.551,-0 2.901,-0.387 4.064,-1.098c1.14,-0.696 1.918,-1.626 2.302,-2.807c0.455,0.916 1.109,1.695 1.945,2.345c1.36,1.058 3.103,1.669 5.278,1.672c7.991,0.075 14.565,0.112 19.721,0.112c5.181,-0 10.418,-0.075 15.711,-0.225c2.981,-0.078 4.795,-1.33 5.764,-3.12c0.664,-1.225 1.125,-3.169 1.125,-5.875c-0,-2.672 -0.796,-4.472 -1.865,-5.564c-0.988,-1.01 -2.277,-1.605 -3.925,-1.641c-0.024,-0 -0.048,-0 -0.071,-0l-14.164,-0c-0.165,-0 -0.371,-0.022 -0.536,-0.043c-0.101,-0.394 -0.097,-0.912 -0.097,-1.533c0,-0 0.056,-11.189 0.056,-11.189c0,-0.005 0,-0.011 0,-0.016c0,-3.785 -0.059,-6.614 -0.174,-8.487c-0.156,-2.54 -0.703,-4.352 -1.403,-5.492c-0.985,-1.606 -2.842,-2.799 -5.908,-2.799l-15.003,-0c-2.975,-0 -4.817,1.136 -5.833,2.696c-0.695,1.068 -1.337,3.186 -1.56,6.439c-0.171,2.483 -0.26,7.279 -0.26,14.389c-0,5.041 0.078,9.128 0.233,12.26c-0.107,-0.198 -0.222,-0.399 -0.346,-0.603c0.005,0.008 -18.286,-30.925 -18.286,-30.925l-0,-0c-1.803,-3.103 -4.801,-4.816 -9.162,-4.816l-4.478,-0c-5.106,-0 -8.745,2.067 -11.02,6.01c-0.004,0.007 -0.008,0.015 -0.012,0.022l-17.448,30.77c-0.915,1.34 -1.343,2.753 -1.343,4.217c0,0.338 0.034,0.677 0.103,1.016c0.168,1.161 0.671,2.081 1.414,2.799c0.874,0.843 2.218,1.486 4.177,1.486c-0,-0 5.038,-0 5.038,-0c1.553,-0 2.715,-0.322 3.525,-0.761c-0,0 -0,0 -0,0c0.894,-0.484 1.794,-1.323 2.539,-2.665c0.031,-0.056 0.06,-0.112 0.088,-0.17l1.882,-3.909Zm-92.344,5.339c-4.516,-0 -8.603,-0.588 -12.261,-1.764c-3.657,-1.176 -6.624,-2.752 -8.901,-4.73c-2.277,-1.979 -4.012,-4.19 -5.207,-6.635c-1.194,-2.444 -1.791,-4.991 -1.791,-7.641c-0,-2.65 0.606,-5.197 1.819,-7.642c1.213,-2.445 2.949,-4.656 5.207,-6.634c2.258,-1.978 5.216,-3.564 8.873,-4.759c3.658,-1.194 7.67,-1.791 12.037,-1.791c4.366,0 8.229,0.541 11.588,1.624c3.359,1.082 6.065,2.556 8.118,4.422c4.18,3.807 6.27,8.323 6.27,13.548c-0,2.65 -0.569,5.244 -1.708,7.782c-1.138,2.538 -2.761,4.842 -4.87,6.914c-2.109,2.071 -4.824,3.769 -8.146,5.094c-3.321,1.325 -6.998,2.062 -11.028,2.212Zm-42.1,-4.535c-0.037,0.821 -0.392,1.577 -1.064,2.267c-0.671,0.691 -1.567,1.073 -2.687,1.148c-2.127,0.149 -4.684,0.224 -7.669,0.224c-2.986,-0 -5.729,-0.075 -8.23,-0.224c-1.12,-0.075 -2.015,-0.457 -2.687,-1.148c-0.672,-0.69 -1.027,-1.446 -1.064,-2.267c-0.112,-5.673 -0.168,-10.516 -0.168,-14.528c0,-4.012 0.019,-6.951 0.056,-8.817c0,-1.418 -0.634,-2.127 -1.903,-2.127l-5.039,-0c-0.783,-0 -1.418,-0.187 -1.903,-0.56c-0.485,-0.374 -0.756,-1.027 -0.812,-1.96c-0.056,-0.933 -0.084,-1.903 -0.084,-2.911c0,-1.008 0.028,-1.875 0.084,-2.603c0.056,-0.728 0.355,-1.288 0.896,-1.68c0.541,-0.391 1.129,-0.587 1.763,-0.587c4.852,-0.075 11.421,-0.112 19.706,-0.112c8.286,-0 14.22,0.037 17.803,0.112c0.635,0.037 1.222,0.242 1.764,0.615c0.541,0.374 0.839,0.924 0.895,1.652c0.056,0.728 0.084,1.577 0.084,2.547c0,0.971 -0.018,1.904 -0.056,2.799c-0.112,1.68 -1.026,2.52 -2.743,2.52l-5.038,-0c-1.269,-0 -1.904,0.653 -1.904,1.959c0.112,4.703 0.168,8.957 0.168,12.764c0,3.807 -0.056,7.446 -0.168,10.917Zm105.305,-0c-0.038,0.821 -0.392,1.577 -1.064,2.267c-0.672,0.691 -1.568,1.073 -2.687,1.148c-2.128,0.149 -4.684,0.224 -7.67,0.224c-2.986,-0 -5.729,-0.075 -8.229,-0.224c-1.12,-0.075 -2.016,-0.457 -2.688,-1.148c-0.671,-0.69 -1.026,-1.446 -1.063,-2.267c-0.112,-5.673 -0.168,-10.516 -0.168,-14.528c-0,-4.012 0.018,-6.951 0.056,-8.817c-0,-1.418 -0.635,-2.127 -1.904,-2.127l-5.038,-0c-0.784,-0 -1.418,-0.187 -1.904,-0.56c-0.485,-0.374 -0.755,-1.027 -0.811,-1.96c-0.056,-0.933 -0.084,-1.903 -0.084,-2.911c-0,-1.008 0.028,-1.875 0.084,-2.603c0.056,-0.728 0.354,-1.288 0.895,-1.68c0.541,-0.391 1.129,-0.587 1.764,-0.587c4.852,-0.075 11.42,-0.112 19.706,-0.112c8.285,-0 14.22,0.037 17.803,0.112c0.634,0.037 1.222,0.242 1.763,0.615c0.541,0.374 0.84,0.924 0.896,1.652c0.056,0.728 0.084,1.577 0.084,2.547c-0,0.971 -0.019,1.904 -0.056,2.799c-0.112,1.68 -1.027,2.52 -2.743,2.52l-5.039,-0c-1.269,-0 -1.903,0.653 -1.903,1.959c0.112,4.703 0.168,8.957 0.168,12.764c-0,3.807 -0.056,7.446 -0.168,10.917Zm99.09,-22.281l-0.056,11.196c-0,1.642 0.252,2.865 0.756,3.667c0.504,0.803 1.558,1.204 3.163,1.204l14.164,-0c1.716,0.037 2.575,1.343 2.575,3.919c-0,1.978 -0.243,3.415 -0.728,4.31c-0.485,0.896 -1.474,1.363 -2.967,1.4c-5.263,0.149 -10.469,0.224 -15.619,0.224c-5.151,-0 -11.72,-0.037 -19.707,-0.112c-1.343,-0 -2.435,-0.327 -3.275,-0.98c-0.839,-0.653 -1.315,-1.558 -1.427,-2.715c-0.299,-3.247 -0.448,-8.37 -0.448,-15.367c0,-6.998 0.084,-11.72 0.252,-14.164c0.168,-2.445 0.513,-4.068 1.036,-4.871c0.522,-0.802 1.548,-1.203 3.079,-1.203l15.003,-0c1.568,-0 2.603,0.41 3.107,1.231c0.504,0.821 0.812,2.146 0.924,3.975c0.112,1.829 0.168,4.591 0.168,8.286Zm-48.09,-10.861l18.307,30.959c0.746,1.231 1.12,2.267 1.12,3.107c-0,0.839 -0.336,1.465 -1.008,1.875c-0.672,0.411 -1.456,0.616 -2.351,0.616l-18.027,-0c-1.829,-0 -3.004,-0.336 -3.527,-1.008c-0.149,-0.224 -0.355,-0.616 -0.616,-1.175l-1.623,-3.471c-0.486,-1.083 -1.624,-1.699 -3.415,-1.848l-10.581,0c-0.784,0 -1.381,0.075 -1.792,0.224c-0.41,0.149 -0.746,0.485 -1.007,1.008l-2.184,4.534c-0.373,0.672 -0.783,1.129 -1.231,1.372c-0.448,0.243 -1.101,0.364 -1.96,0.364l-5.038,-0c-1.456,-0 -2.24,-0.523 -2.351,-1.568c-0.038,-0.149 -0.056,-0.298 -0.056,-0.447c-0,-0.859 0.279,-1.68 0.839,-2.464l17.523,-30.903c1.68,-2.911 4.404,-4.366 8.174,-4.366l4.478,-0c2.986,-0 5.095,1.063 6.326,3.191Zm-103.121,15.927c0,-1.773 -0.634,-3.322 -1.903,-4.647c-1.269,-1.324 -3.201,-1.987 -5.794,-1.987c-2.594,0 -4.656,0.691 -6.187,2.071c-1.53,1.381 -2.295,3.061 -2.295,5.039c0,1.978 0.803,3.564 2.407,4.759c1.605,1.194 3.537,1.791 5.795,1.791c2.258,-0 4.152,-0.728 5.682,-2.183c1.53,-1.456 2.295,-3.07 2.295,-4.843Zm84.983,-1.595l-2.575,5.094c-0.15,0.336 -0.224,0.635 -0.224,0.896c-0,0.97 0.466,1.455 1.399,1.455l5.095,0c0.783,0 1.325,-0.196 1.623,-0.588c0.299,-0.391 0.448,-0.737 0.448,-1.035c0,-0.299 -0.056,-0.597 -0.168,-0.896l-2.127,-4.814c-0.448,-0.971 -1.027,-1.456 -1.736,-1.456c-0.709,-0 -1.287,0.448 -1.735,1.344Zm-88.269,1.595c0,0.917 -0.482,1.709 -1.274,2.462c-0.917,0.872 -2.064,1.278 -3.417,1.278c-1.489,-0 -2.775,-0.354 -3.833,-1.142c-0.717,-0.533 -1.083,-1.238 -1.083,-2.122c0,-1.024 0.419,-1.884 1.211,-2.599c0.978,-0.882 2.327,-1.225 3.985,-1.225c1.506,0 2.684,0.205 3.421,0.974c0.65,0.679 0.99,1.466 0.99,2.374Zm89.848,2.564l0.088,0l-0.041,-0.092l-0.047,0.092Z" style="fill:#1da7e1;"/></g></g><defs><linearGradient id="_Linear2" x1="0" y1="0" x2="1" y2="0" gradientUnits="userSpaceOnUse" gradientTransform="matrix(2.9931e-15,48.881,-48.881,2.9931e-15,355.256,4.25251)"><stop offset="0" style="stop-color:#fefefe;stop-opacity:1"/><stop offset="1" style="stop-color:#efefef;stop-opacity:1"/></linearGradient></defs></svg>