<?xml version="1.0" encoding="UTF-8" standalone="no"?><!DOCTYPE svg PUBLIC "-//W3C//DTD SVG 1.1//EN" "http://www.w3.org/Graphics/SVG/1.1/DTD/svg11.dtd"><svg width="348px" height="93px" viewBox="0 0 348 93" version="1.1" xmlns="http://www.w3.org/2000/svg" xmlns:xlink="http://www.w3.org/1999/xlink" xml:space="preserve" xmlns:serif="http://www.serif.com/" style="fill-rule:evenodd;clip-rule:evenodd;stroke-linecap:round;stroke-linejoin:round;stroke-miterlimit:1.5;"><rect id="Artboard1" x="0" y="0" width="347.675" height="92.044" style="fill:none;"/><g><path d="M346.243,16.593c0,-4.513 -3.664,-8.177 -8.177,-8.177l-328.457,-0c-4.514,-0 -8.178,3.664 -8.178,8.177l0,65.757c0,4.513 3.664,8.177 8.178,8.177l328.457,-0c4.513,-0 8.177,-3.664 8.177,-8.177l0,-65.757Z" style="fill:#47832c;stroke:#000;stroke-opacity:0.13;stroke-width:0.46px;"/><path d="M346.243,9.694c0,-4.513 -3.664,-8.177 -8.177,-8.177l-328.457,0c-4.514,0 -8.178,3.664 -8.178,8.177l0,65.757c0,4.513 3.664,8.177 8.178,8.177l328.457,0c4.513,0 8.177,-3.664 8.177,-8.177l0,-65.757Z" style="fill:#5fb13a;stroke:#000;stroke-opacity:0.13;stroke-width:0.46px;"/><path d="M342.29,10.858c-0,-3.106 -2.522,-5.628 -5.628,-5.628l-326.049,0c-3.106,0 -5.628,2.522 -5.628,5.628l-0,62.866c-0,3.106 2.522,5.627 5.628,5.627l326.049,0c3.106,0 5.628,-2.521 5.628,-5.627l-0,-62.866Z" style="fill:#88e060;stroke:#000;stroke-opacity:0.13;stroke-width:0.46px;"/><path d="M338.857,11.403c0,-1.361 -1.105,-2.466 -2.466,-2.466l-325.244,0c-1.361,0 -2.466,1.105 -2.466,2.466l-0,61.866c-0,1.361 1.105,2.465 2.466,2.465l325.244,0c1.361,0 2.466,-1.104 2.466,-2.465l0,-61.866Z" style="fill:url(#_Linear1);stroke:#000;stroke-opacity:0.13;stroke-width:0.46px;"/><g id="Try-Again" serif:id="Try Again"><path d="M44.419,55.255c-0.026,0.575 -0.274,1.105 -0.745,1.588c-0.47,0.484 -1.097,0.752 -1.882,0.804c-1.489,0.104 -3.28,0.157 -5.371,0.157c-2.091,-0 -4.012,-0.053 -5.763,-0.157c-0.784,-0.052 -1.412,-0.32 -1.882,-0.804c-0.471,-0.483 -0.719,-1.013 -0.745,-1.588c-0.079,-3.973 -0.118,-7.364 -0.118,-10.174c0,-2.81 0.013,-4.868 0.039,-6.175c0,-0.993 -0.444,-1.49 -1.333,-1.49l-3.528,0c-0.549,0 -0.993,-0.13 -1.333,-0.392c-0.34,-0.261 -0.529,-0.719 -0.569,-1.372c-0.039,-0.654 -0.058,-1.333 -0.058,-2.039c-0,-0.706 0.019,-1.313 0.058,-1.823c0.04,-0.51 0.249,-0.902 0.628,-1.176c0.379,-0.275 0.79,-0.412 1.235,-0.412c3.398,-0.052 7.998,-0.078 13.8,-0.078c5.803,-0 9.959,0.026 12.468,0.078c0.444,0.026 0.856,0.17 1.235,0.431c0.379,0.262 0.588,0.647 0.627,1.157c0.04,0.51 0.059,1.104 0.059,1.784c0,0.68 -0.013,1.333 -0.039,1.96c-0.078,1.176 -0.719,1.765 -1.921,1.765l-3.529,-0c-0.888,-0 -1.333,0.457 -1.333,1.372c0.079,3.293 0.118,6.273 0.118,8.939c-0,2.666 -0.039,5.214 -0.118,7.645Z" style="fill:#fff;fill-rule:nonzero;"/><path d="M71.119,38.396l0.078,7.254c0,0.496 0.275,0.745 0.824,0.745c1.62,-0 2.894,-0.451 3.822,-1.353c0.928,-0.902 1.392,-1.967 1.392,-3.195c0,-1.229 -0.438,-2.287 -1.313,-3.176c-0.876,-0.889 -2.163,-1.333 -3.862,-1.333c-0.627,-0 -0.941,0.353 -0.941,1.058Zm10.272,11.723c0.497,0.523 2.261,2.496 5.293,5.92c0.183,0.236 0.274,0.445 0.274,0.628c0,0.679 -0.3,1.019 -0.901,1.019c-1.386,0.026 -2.778,0.039 -4.176,0.039c-1.398,0 -2.79,-0.013 -4.175,-0.039c-0.758,0 -1.451,-0.301 -2.078,-0.902l-3.372,-5.097c-0.131,-0.156 -0.288,-0.261 -0.471,-0.313c-0.418,-0.157 -0.627,0.013 -0.627,0.509l0,4c0,1.123 -0.738,1.725 -2.215,1.803c-1.477,0.078 -3.091,0.118 -4.842,0.118c-1.751,-0 -3.868,-0.066 -6.352,-0.196c-0.758,-0.053 -1.365,-0.314 -1.823,-0.785c-0.457,-0.47 -0.725,-1.006 -0.803,-1.607c-0.209,-2.3 -0.314,-5.914 -0.314,-10.841c-0,-4.927 0.078,-8.514 0.235,-10.762c0.157,-2.248 1.294,-3.385 3.411,-3.411c1.987,-0.026 4.692,-0.039 8.116,-0.039c3.424,-0 6.26,0.026 8.508,0.078c3.241,0.053 5.894,1.255 7.959,3.607c2.065,2.353 3.097,5.006 3.097,7.959c0,1.725 -0.399,3.32 -1.196,4.784c-0.797,1.463 -1.98,2.639 -3.548,3.528Z" style="fill:#fff;fill-rule:nonzero;"/><path d="M123.264,30.202c0.522,0 0.784,0.262 0.784,0.784c-0,0.34 -0.144,0.706 -0.431,1.098l-8.783,13.918c0,2.118 -0.065,5.202 -0.196,9.253c-0.026,0.575 -0.274,1.105 -0.745,1.588c-0.47,0.484 -1.097,0.752 -1.882,0.804c-1.489,0.104 -3.28,0.157 -5.371,0.157c-2.091,-0 -4.012,-0.053 -5.763,-0.157c-0.784,-0.052 -1.412,-0.32 -1.882,-0.804c-0.471,-0.483 -0.719,-1.013 -0.745,-1.588c-0.052,-2.64 -0.079,-5.384 -0.079,-8.233l-7.919,-13.291c-0.392,-0.601 -0.588,-1.098 -0.588,-1.49c-0,-1.307 0.64,-1.96 1.921,-1.96l13.408,-0.079c0.758,0 1.327,0.118 1.706,0.353c0.379,0.235 0.83,0.719 1.353,1.451l2.391,5.136c0.418,0.575 0.765,0.862 1.039,0.862c0.275,0 0.608,-0.235 1,-0.705l3.999,-6.273c0.444,-0.549 1.006,-0.824 1.686,-0.824l5.097,0Z" style="fill:#fff;fill-rule:nonzero;"/><path d="M169.135,32.045l12.821,21.681c0.523,0.863 0.784,1.588 0.784,2.176c0,0.588 -0.235,1.026 -0.706,1.314c-0.47,0.287 -1.019,0.431 -1.646,0.431l-12.625,-0c-1.281,-0 -2.104,-0.235 -2.47,-0.706c-0.104,-0.157 -0.248,-0.431 -0.431,-0.823l-1.137,-2.431c-0.34,-0.758 -1.137,-1.189 -2.392,-1.294l-7.41,0c-0.549,0 -0.967,0.052 -1.254,0.157c-0.288,0.105 -0.523,0.34 -0.706,0.706l-1.529,3.175c-0.262,0.471 -0.549,0.791 -0.863,0.961c-0.313,0.17 -0.771,0.255 -1.372,0.255l-3.529,-0c-1.019,-0 -1.568,-0.366 -1.646,-1.098c-0.026,-0.105 -0.039,-0.209 -0.039,-0.314c-0,-0.601 0.196,-1.176 0.588,-1.725l12.271,-21.642c1.177,-2.038 3.085,-3.058 5.724,-3.058l3.137,0c2.091,0 3.568,0.745 4.43,2.235Zm-12.703,10.037l-1.803,3.568c-0.105,0.235 -0.157,0.444 -0.157,0.627c0,0.679 0.327,1.019 0.98,1.019l3.568,0c0.549,0 0.928,-0.137 1.137,-0.411c0.209,-0.275 0.314,-0.517 0.314,-0.726c-0,-0.209 -0.039,-0.418 -0.118,-0.627l-1.49,-3.372c-0.313,-0.679 -0.719,-1.019 -1.215,-1.019c-0.497,-0 -0.902,0.313 -1.216,0.941Z" style="fill:#fff;fill-rule:nonzero;"/><path d="M208.852,36.554c-2.353,-0 -4.006,0.607 -4.96,1.823c-0.954,1.215 -1.431,3.143 -1.431,5.783c-0,4.156 1.215,6.234 3.646,6.234c0.497,-0 0.824,-0.013 0.98,-0.04c-0.313,0 -0.568,-0.549 -0.764,-1.646c-0.196,-1.098 -0.294,-2.248 -0.294,-3.45c-0,-1.203 0.326,-1.98 0.98,-2.333c0.653,-0.353 1.562,-0.53 2.725,-0.53c1.163,0 1.973,0.007 2.431,0.02c0.457,0.013 0.98,0.065 1.568,0.157c0.588,0.091 1.039,0.229 1.352,0.412c0.732,0.418 1.098,1.045 1.098,1.881l0,5.725c0,2.038 -0.366,3.665 -1.098,4.881c-0.731,1.215 -2.104,1.928 -4.116,2.137c-2.823,0.287 -7.136,0.431 -12.938,0.431c-2.327,-0 -4.32,-0.366 -5.979,-1.098c-1.66,-0.732 -2.947,-1.751 -3.862,-3.058c-1.673,-2.431 -2.509,-5.522 -2.509,-9.272c-0,-3.751 1.202,-7.09 3.607,-10.018c2.404,-2.927 5.606,-4.495 9.605,-4.704c2.745,-0.157 4.731,-0.236 5.96,-0.236c4.469,0 7.645,0.275 9.527,0.824c1.281,0.366 1.921,1.398 1.921,3.097c-0,2.274 -0.667,3.411 -2,3.411c-0.418,-0.026 -1.254,-0.105 -2.509,-0.235c-1.254,-0.131 -2.235,-0.196 -2.94,-0.196Z" style="fill:#fff;fill-rule:nonzero;"/><path d="M246.176,32.045l12.821,21.681c0.523,0.863 0.784,1.588 0.784,2.176c-0,0.588 -0.235,1.026 -0.706,1.314c-0.47,0.287 -1.019,0.431 -1.646,0.431l-12.625,-0c-1.281,-0 -2.104,-0.235 -2.47,-0.706c-0.104,-0.157 -0.248,-0.431 -0.431,-0.823l-1.137,-2.431c-0.34,-0.758 -1.137,-1.189 -2.392,-1.294l-7.41,0c-0.549,0 -0.967,0.052 -1.254,0.157c-0.288,0.105 -0.523,0.34 -0.706,0.706l-1.529,3.175c-0.262,0.471 -0.549,0.791 -0.863,0.961c-0.313,0.17 -0.771,0.255 -1.372,0.255l-3.529,-0c-1.019,-0 -1.568,-0.366 -1.646,-1.098c-0.026,-0.105 -0.039,-0.209 -0.039,-0.314c-0,-0.601 0.196,-1.176 0.588,-1.725l12.271,-21.642c1.176,-2.038 3.085,-3.058 5.724,-3.058l3.137,0c2.091,0 3.568,0.745 4.43,2.235Zm-12.703,10.037l-1.803,3.568c-0.105,0.235 -0.157,0.444 -0.157,0.627c0,0.679 0.327,1.019 0.98,1.019l3.568,0c0.549,0 0.928,-0.137 1.137,-0.411c0.209,-0.275 0.314,-0.517 0.314,-0.726c-0,-0.209 -0.04,-0.418 -0.118,-0.627l-1.49,-3.372c-0.313,-0.679 -0.719,-1.019 -1.215,-1.019c-0.497,-0 -0.902,0.313 -1.216,0.941Z" style="fill:#fff;fill-rule:nonzero;"/><path d="M266.564,30.202l10.507,0c1.098,0 1.823,0.275 2.176,0.824c0.353,0.548 0.588,1.679 0.706,3.391c0.117,1.712 0.176,5.031 0.176,9.958c0,4.927 -0.104,8.541 -0.313,10.841c-0.079,0.601 -0.347,1.137 -0.804,1.607c-0.458,0.471 -1.065,0.732 -1.823,0.785c-1.49,0.104 -3.215,0.156 -5.176,0.156c-1.96,0 -3.816,-0.052 -5.567,-0.156c-0.758,-0.053 -1.366,-0.314 -1.823,-0.785c-0.457,-0.47 -0.725,-1.006 -0.804,-1.607c-0.209,-2.3 -0.313,-5.914 -0.313,-10.841c-0,-4.927 0.058,-8.246 0.176,-9.958c0.118,-1.712 0.353,-2.843 0.706,-3.391c0.353,-0.549 1.078,-0.824 2.176,-0.824Z" style="fill:#fff;fill-rule:nonzero;"/><path d="M311.416,30.202l4.195,0c0.889,0 1.51,0.144 1.862,0.431c0.353,0.288 0.543,0.876 0.569,1.765c0.157,3.973 0.235,8.246 0.235,12.82c0,4.574 -0.091,7.92 -0.274,10.037c-0.053,0.601 -0.281,1.15 -0.686,1.647c-0.405,0.497 -0.935,0.745 -1.588,0.745l-6.548,-0c-0.915,-0 -1.921,-0.327 -3.019,-0.98c-6.064,-3.581 -9.88,-5.764 -11.448,-6.548c-0.314,-0.131 -0.568,-0.085 -0.764,0.137c-0.196,0.223 -0.295,0.634 -0.295,1.235l0,4.352c0,0.497 -0.182,0.889 -0.548,1.177c-0.549,0.444 -1.961,0.666 -4.235,0.666c-0.627,0 -1.241,-0.02 -1.842,-0.059c-0.602,-0.039 -1.092,-0.307 -1.471,-0.804c-0.379,-0.496 -0.581,-1.032 -0.607,-1.607c-0.079,-3.137 -0.118,-7.077 -0.118,-11.821c0,-4.744 0.013,-7.835 0.039,-9.272c0.026,-1.438 0.196,-2.451 0.51,-3.039c0.314,-0.588 0.915,-0.882 1.803,-0.882l4.313,0c0.889,0 1.804,0.249 2.745,0.745c8.102,4.208 12.833,6.652 14.192,7.332c0.445,0.209 0.798,0.235 1.059,0.078c0.261,-0.157 0.392,-0.444 0.392,-0.862l0,-5.489c0,-0.523 0.137,-0.954 0.412,-1.294c0.274,-0.34 0.647,-0.51 1.117,-0.51Z" style="fill:#fff;fill-rule:nonzero;"/></g></g><defs><linearGradient id="_Linear1" x1="0" y1="0" x2="1" y2="0" gradientUnits="userSpaceOnUse" gradientTransform="matrix(4.09014e-15,66.797,-66.797,4.09014e-15,142.945,8.93739)"><stop offset="0" style="stop-color:#87df5f;stop-opacity:1"/><stop offset="1" style="stop-color:#74ce4c;stop-opacity:1"/></linearGradient></defs></svg>