<?xml version="1.0" encoding="UTF-8" standalone="no"?><!DOCTYPE svg PUBLIC "-//W3C//DTD SVG 1.1//EN" "http://www.w3.org/Graphics/SVG/1.1/DTD/svg11.dtd"><svg width="213px" height="213px" viewBox="0 0 213 213" version="1.1" xmlns="http://www.w3.org/2000/svg" xmlns:xlink="http://www.w3.org/1999/xlink" xml:space="preserve" xmlns:serif="http://www.serif.com/" style="fill-rule:evenodd;clip-rule:evenodd;stroke-linejoin:round;stroke-miterlimit:2;"><rect id="Artboard1" x="0" y="0" width="212.598" height="212.598" style="fill:none;"/><clipPath id="_clip1"><rect x="0" y="0" width="212.598" height="212.598"/></clipPath><g clip-path="url(#_clip1)"><g><rect x="9.124" y="9.603" width="194.448" height="193.472" style="fill:#fff;"/><path d="M212.648,13.108c-0,-7.212 -5.856,-13.068 -13.068,-13.068l-186.463,0c-7.212,0 -13.068,5.856 -13.068,13.068l0,186.463c0,7.212 5.856,13.068 13.068,13.068l186.463,-0c7.212,-0 13.068,-5.856 13.068,-13.068l-0,-186.463Zm-16.327,4.639c0,-0.736 -0.597,-1.333 -1.333,-1.333l-177.14,-0c-0.735,-0 -1.333,0.597 -1.333,1.333l0,177.14c0,0.735 0.598,1.333 1.333,1.333l177.14,-0c0.736,-0 1.333,-0.598 1.333,-1.333l0,-177.14Z" style="fill:#fc0;"/><path d="M16.515,17.747l0,6.442c0,-0.735 0.598,-1.333 1.333,-1.333l177.14,0c0.736,0 1.333,0.598 1.333,1.333l0,-6.442c0,-0.736 -0.597,-1.333 -1.333,-1.333l-177.14,-0c-0.735,-0 -1.333,0.597 -1.333,1.333Z" style="fill:#e2e2e2;"/></g></g></svg>