<?xml version="1.0" encoding="UTF-8" standalone="no"?><!DOCTYPE svg PUBLIC "-//W3C//DTD SVG 1.1//EN" "http://www.w3.org/Graphics/SVG/1.1/DTD/svg11.dtd"><svg width="100%" height="100%" viewBox="0 0 128 128" version="1.1" xmlns="http://www.w3.org/2000/svg" xmlns:xlink="http://www.w3.org/1999/xlink" xml:space="preserve" xmlns:serif="http://www.serif.com/" style="fill-rule:evenodd;clip-rule:evenodd;stroke-linejoin:round;stroke-miterlimit:2;"><rect id="Artboard1" x="-0" y="0" width="127.562" height="127.562" style="fill:none;"/><g><g><path d="M36.122,91.44c7.336,7.335 17.285,11.456 27.659,11.456c21.603,0 39.115,-17.512 39.115,-39.115l-9.778,-0c-0,16.202 -13.135,29.337 -29.337,29.337c-7.781,-0 -15.242,-3.091 -20.744,-8.593l-6.915,6.915Z" style="fill:#ecbd00;"/><path d="M24.665,63.781c0,10.374 4.122,20.323 11.457,27.659l6.915,-6.915c-5.502,-5.502 -8.593,-12.963 -8.593,-20.744l-9.779,-0Z" style="fill:#ffd52e;"/><path d="M91.44,36.122c-7.336,-7.335 -17.285,-11.457 -27.659,-11.457c-21.603,0 -39.116,17.513 -39.116,39.116l9.779,-0c0,-16.202 13.135,-29.337 29.337,-29.337c7.781,0 15.242,3.091 20.744,8.593l6.915,-6.915Z" style="fill:#ffdd57;"/><path d="M102.896,63.781c0,-10.374 -4.121,-20.323 -11.456,-27.659l-6.915,6.915c5.502,5.502 8.593,12.963 8.593,20.744l9.778,-0Z" style="fill:#efca33;"/><path d="M93.702,63.781c-0,-16.525 -13.396,-29.921 -29.921,-29.921c-16.525,0 -29.921,13.396 -29.921,29.921l29.921,-0l29.921,-0Z" style="fill:#ffd633;"/><path d="M33.86,63.781c0,16.525 13.396,29.921 29.921,29.921c16.525,-0 29.921,-13.396 29.921,-29.921l-29.921,-0l-29.921,-0Z" style="fill:#fc0;"/></g></g></svg>