<?xml version="1.0" encoding="UTF-8" standalone="no"?><!DOCTYPE svg PUBLIC "-//W3C//DTD SVG 1.1//EN" "http://www.w3.org/Graphics/SVG/1.1/DTD/svg11.dtd"><svg width="100%" height="100%" viewBox="0 0 128 128" version="1.1" xmlns="http://www.w3.org/2000/svg" xmlns:xlink="http://www.w3.org/1999/xlink" xml:space="preserve" xmlns:serif="http://www.serif.com/" style="fill-rule:evenodd;clip-rule:evenodd;stroke-linejoin:round;stroke-miterlimit:2;"><rect id="Artboard5" x="0" y="0" width="127.562" height="127.562" style="fill:none;"/><g><path d="M44.698,31.89l38.166,0l20.473,21.452l-39.556,42.329l-39.557,-42.329l20.474,-21.452Z" style="fill:#e61aaa;fill-opacity:0.54;"/><path d="M78.801,41.849l10.642,11.554l-25.662,27.461l-25.662,-27.461l10.642,-11.554l30.04,-0Z" style="fill:#c3cc33;"/><path d="M78.801,41.849l4.063,-9.959l20.473,21.452l-13.949,0l-10.587,-11.493Z" style="fill:#d75a5a;"/><path d="M41.615,57.144l22.166,23.72l-0,14.807l-36.004,-38.527l13.838,-0Z" style="fill:#d44c4c;"/><path d="M38.119,53.403l-13.895,-0.061l20.474,-21.452l38.166,0l-4.063,9.959l-30.04,-0l-10.642,11.554Z" style="fill:#ef7676;"/><path d="M27.777,57.144l-3.553,-3.802l13.895,0.061l3.496,3.741l-13.838,-0Z" style="fill:#d75a5a;"/><path d="M99.785,57.144l-13.838,-0l3.496,-3.741l-0.055,-0.061l13.949,0l-3.552,3.802Z" style="fill:#b04040;"/><path d="M63.781,80.864l-22.166,-23.72l44.332,-0l-22.166,23.72Z" style="fill:#c83e3e;"/><path d="M41.615,57.144l-3.496,-3.741l10.642,-11.554l30.04,-0l10.642,11.554l-3.496,3.741l-44.332,-0Z" style="fill:#cc4d4d;"/><path d="M99.785,57.144l-36.004,38.527l-0,-14.807l22.166,-23.72l13.838,-0Z" style="fill:#aa3030;"/></g></svg>