<?xml version="1.0" encoding="UTF-8" standalone="no"?><!DOCTYPE svg PUBLIC "-//W3C//DTD SVG 1.1//EN" "http://www.w3.org/Graphics/SVG/1.1/DTD/svg11.dtd"><svg width="100%" height="100%" viewBox="0 0 128 128" version="1.1" xmlns="http://www.w3.org/2000/svg" xmlns:xlink="http://www.w3.org/1999/xlink" xml:space="preserve" xmlns:serif="http://www.serif.com/" style="fill-rule:evenodd;clip-rule:evenodd;stroke-linejoin:round;stroke-miterlimit:2;"><rect id="Artboard2" x="-0" y="0" width="127.562" height="127.562" style="fill:none;"/><g><path d="M63.781,37.813c0.027,-0.001 0.05,-0.012 0.075,-0.016c0.496,-0.069 0.905,-0.796 1.119,-1.124c3.623,-5.555 9.249,-8.964 16.628,-8.964c11.881,0 21.099,8.055 21.928,21.203c0.26,4.129 -0.845,7.541 -1.85,10.164c-1.466,3.824 -4.334,6.617 -8.537,10.945c-6.5,6.693 -13.118,13.75 -18.184,19.263c-4.333,4.717 -7.499,8.299 -8.826,9.626c-0.648,0.647 -1.504,0.961 -2.353,0.942c-0.849,0.019 -1.705,-0.295 -2.353,-0.942c-1.327,-1.327 -4.493,-4.909 -8.826,-9.626c-5.066,-5.513 -11.684,-12.57 -18.184,-19.263c-4.203,-4.328 -7.071,-7.121 -8.537,-10.945c-1.005,-2.623 -2.11,-6.035 -1.85,-10.164c0.829,-13.148 10.047,-21.203 21.928,-21.203c7.379,0 13.005,3.409 16.628,8.964c0.214,0.328 0.566,1.036 1.119,1.124c0.025,0.004 0.048,0.015 0.075,0.016Z" style="fill:#f9c;"/><path d="M47.26,83.519c-3.989,-4.271 -8.443,-8.968 -12.842,-13.498c-4.203,-4.328 -7.071,-7.121 -8.537,-10.945c-1.005,-2.623 -2.11,-6.035 -1.85,-10.164c0.829,-13.148 10.047,-21.203 21.928,-21.203c7.379,0 13.005,3.409 16.628,8.964c0.214,0.328 0.566,1.036 1.119,1.124c0.025,0.004 0.048,0.015 0.075,0.016c0.027,-0.001 0.05,-0.012 0.075,-0.016c0.496,-0.069 0.905,-0.796 1.119,-1.124c3.623,-5.555 9.249,-8.964 16.628,-8.964c6.242,0 11.749,2.224 15.692,6.242l-6.927,6.862c-2.205,-2.257 -5.264,-3.521 -8.765,-3.521c-3.813,0 -6.73,1.746 -8.602,4.616c-1.166,1.788 -4.233,4.437 -7.016,5.204c-0.537,0.112 -1.382,0.265 -1.929,0.28c-0.183,0.006 -0.367,0.006 -0.551,0c-0.63,-0.018 -1.658,-0.218 -2.144,-0.322c-2.943,-0.823 -5.651,-3.4 -6.8,-5.162c-1.872,-2.87 -4.789,-4.616 -8.602,-4.616c-6.772,0 -11.891,4.729 -12.364,12.223c-0.157,2.499 0.626,4.543 1.234,6.131c1.062,2.769 3.42,4.564 6.463,7.698c4.373,4.503 8.799,9.168 12.779,13.428l-6.811,6.747Zm18.199,-36.279c-0.106,0.021 -0.205,0.038 -0.289,0.05l0.397,-0.071l-0.054,0.011l-0.054,0.01Zm-4.098,-0.17l0.197,0.057l0.646,0.135c-0.216,-0.035 -0.432,-0.079 -0.646,-0.135c-0.256,-0.058 -0.469,-0.112 -0.469,-0.112l0.272,0.055Zm5.133,-0.062c0,0 -0.481,0.121 -0.912,0.208l0.403,-0.104l0.509,-0.104Z" style="fill:#ffaad4;"/><path d="M97.295,33.951c-1.725,-1.758 5.652,5.7 6.236,14.961c0.26,4.129 -0.845,7.541 -1.85,10.164c-1.466,3.824 -4.334,6.617 -8.537,10.945c-6.5,6.693 -13.118,13.75 -18.184,19.263c-4.333,4.717 -7.499,8.299 -8.826,9.626c-0.648,0.647 -1.504,0.961 -2.353,0.942c-0.849,0.019 -1.705,-0.295 -2.353,-0.942c-1.327,-1.327 -4.493,-4.909 -8.826,-9.626c-1.637,-1.781 -3.437,-3.725 -5.342,-5.765l6.811,-6.747c-0,-0 3.778,4.059 5.588,6.029c1.537,1.673 2.922,3.2 4.122,4.526c1.2,-1.326 2.585,-2.853 4.122,-4.526c5.116,-5.569 11.801,-12.696 18.366,-19.457c3.044,-3.134 5.402,-4.929 6.464,-7.698c0.608,-1.588 1.391,-3.632 1.234,-6.131c-0.229,-3.619 -1.541,-6.594 -3.599,-8.702l6.927,-6.862Z" style="fill:#f080b8;"/></g></svg>