<?xml version="1.0" encoding="UTF-8" standalone="no"?><!DOCTYPE svg PUBLIC "-//W3C//DTD SVG 1.1//EN" "http://www.w3.org/Graphics/SVG/1.1/DTD/svg11.dtd"><svg width="100%" height="100%" viewBox="0 0 128 128" version="1.1" xmlns="http://www.w3.org/2000/svg" xmlns:xlink="http://www.w3.org/1999/xlink" xml:space="preserve" xmlns:serif="http://www.serif.com/" style="fill-rule:evenodd;clip-rule:evenodd;stroke-linejoin:round;stroke-miterlimit:2;"><rect id="Artboard3" x="-0" y="0" width="127.562" height="127.562" style="fill:none;"/><g><g><path d="M24.395,63.781l23.574,-15.641l15.812,-23.318l-0,17.391l-8.753,12.909l-13.051,8.659l-17.582,-0Z" style="fill:#ff9d5e;"/><path d="M24.395,63.781l23.574,15.641l15.812,23.318l-0,-17.392l-8.753,-12.909l-13.051,-8.658l-17.582,-0Z" style="fill:#f07625;"/><path d="M103.167,63.781l-23.574,-15.641l-15.812,-23.318l-0,17.391l8.753,12.909l13.051,8.659l17.582,-0Z" style="fill:#f1863f;"/><path d="M103.167,63.781l-23.574,15.641l-15.812,23.318l-0,-17.392l8.753,-12.909l13.051,-8.658l17.582,-0Z" style="fill:#c95b12;"/><path d="M86.151,63.781l-13.389,8.883l-8.981,13.244l-8.981,-13.244l-13.389,-8.883l44.74,-0Z" style="fill:#e86a17;"/><path d="M41.411,63.781l13.389,-8.883l8.981,-13.244l8.981,13.244l13.389,8.883l-44.74,-0Z" style="fill:#ea7c33;"/></g></g></svg>