<?xml version="1.0" encoding="UTF-8" standalone="no"?><!DOCTYPE svg PUBLIC "-//W3C//DTD SVG 1.1//EN" "http://www.w3.org/Graphics/SVG/1.1/DTD/svg11.dtd"><svg width="100%" height="100%" viewBox="0 0 128 128" version="1.1" xmlns="http://www.w3.org/2000/svg" xmlns:xlink="http://www.w3.org/1999/xlink" xml:space="preserve" xmlns:serif="http://www.serif.com/" style="fill-rule:evenodd;clip-rule:evenodd;stroke-linejoin:round;stroke-miterlimit:2;"><rect id="Artboard6" x="0" y="0" width="127.562" height="127.562" style="fill:none;"/><g><path d="M63.781,24.531l-0,22.257l-14.053,28.025l-11.088,0l25.141,-50.282Z" style="fill:#bbe27c;"/><path d="M49.728,74.813l-11.088,0l-14.109,28.218l16.061,-9.996l9.136,-18.222Z" style="fill:#aadb5c;"/><path d="M49.728,74.813l28.106,0l9.136,18.222l-46.378,-0l9.136,-18.222Z" style="fill:#80be1f;"/><path d="M63.781,46.788c-0,-0 14.053,28.025 14.053,28.025l-28.106,0l14.053,-28.025Z" style="fill:#99cb4b;"/><path d="M40.592,93.035l46.378,-0l16.061,9.996l-78.5,-0l16.061,-9.996Z" style="fill:#6da615;"/><path d="M63.781,24.531l-0,22.257l14.053,28.025l11.088,0l-25.141,-50.282Z" style="fill:#a3d356;"/><path d="M77.834,74.813l11.088,0l14.109,28.218l-16.061,-9.996l-9.136,-18.222Z" style="fill:#8cc92c;"/></g></svg>