<?xml version="1.0" encoding="UTF-8" standalone="no"?><!DOCTYPE svg PUBLIC "-//W3C//DTD SVG 1.1//EN" "http://www.w3.org/Graphics/SVG/1.1/DTD/svg11.dtd"><svg width="100%" height="100%" viewBox="0 0 165 165" version="1.1" xmlns="http://www.w3.org/2000/svg" xmlns:xlink="http://www.w3.org/1999/xlink" xml:space="preserve" xmlns:serif="http://www.serif.com/" style="fill-rule:evenodd;clip-rule:evenodd;stroke-linejoin:round;stroke-miterlimit:2;"><rect id="Artboard1" x="0" y="0" width="164.672" height="164.672" style="fill:none;"/><path d="M78.718,48.288l-23.955,13.831l-5.233,-3.021l-5.793,-21.62c-0.27,-1.009 -1.308,-1.608 -2.316,-1.338l-3.653,0.979c-1.008,0.27 -1.607,1.308 -1.337,2.316l3.835,14.314l-6.134,-3.541l-2.197,-8.2c-0.659,-2.459 -3.19,-3.921 -5.649,-3.262l-8.911,2.388c-2.459,0.659 -3.921,3.19 -3.262,5.649l2.388,8.911c0.659,2.459 3.19,3.921 5.649,3.262l8.2,-2.198l6.134,3.542l-14.314,3.835c-1.008,0.27 -1.607,1.308 -1.337,2.316l0.979,3.653c0.27,1.009 1.308,1.608 2.316,1.338l21.62,-5.793l5.233,3.021l-0,27.66l-5.233,3.021l-21.62,-5.793c-1.008,-0.27 -2.046,0.329 -2.316,1.338l-0.979,3.653c-0.27,1.008 0.329,2.046 1.337,2.316l14.314,3.835l-6.134,3.542l-8.2,-2.198c-2.459,-0.659 -4.99,0.803 -5.649,3.262l-2.388,8.911c-0.659,2.459 0.803,4.99 3.262,5.649l8.911,2.388c2.459,0.659 4.99,-0.803 5.649,-3.262l2.197,-8.2l6.134,-3.541l-3.835,14.314c-0.27,1.008 0.329,2.046 1.337,2.316l3.653,0.979c1.008,0.27 2.046,-0.329 2.316,-1.338l5.793,-21.62l5.233,-3.021l23.955,13.831l-0,6.042l-15.827,15.827c-0.738,0.738 -0.738,1.936 -0,2.674l2.674,2.674c0.738,0.739 1.937,0.739 2.675,0l10.478,-10.478l-0,7.083l-6.003,6.003c-1.8,1.8 -1.8,4.723 0,6.523l6.523,6.523c1.801,1.8 4.723,1.8 6.524,0l6.523,-6.523c1.8,-1.8 1.8,-4.723 -0,-6.523l-6.003,-6.003l0,-7.083l10.478,10.478c0.738,0.739 1.937,0.739 2.675,0l2.674,-2.674c0.738,-0.738 0.738,-1.936 0,-2.674l-15.827,-15.827l0,-6.042l23.955,-13.831l5.233,3.021l5.793,21.62c0.27,1.009 1.308,1.608 2.316,1.338l3.653,-0.979c1.008,-0.27 1.607,-1.308 1.337,-2.316l-3.835,-14.314l6.134,3.541l2.197,8.2c0.659,2.459 3.19,3.921 5.649,3.262l8.911,-2.388c2.459,-0.659 3.921,-3.19 3.262,-5.649l-2.388,-8.911c-0.659,-2.459 -3.19,-3.921 -5.649,-3.262l-8.2,2.198l-6.134,-3.542l14.314,-3.835c1.008,-0.27 1.607,-1.308 1.337,-2.316l-0.979,-3.653c-0.27,-1.009 -1.308,-1.608 -2.316,-1.338l-21.62,5.793l-5.233,-3.021l0,-27.66l5.233,-3.021l21.62,5.793c1.008,0.27 2.046,-0.329 2.316,-1.338l0.979,-3.653c0.27,-1.008 -0.329,-2.046 -1.337,-2.316l-14.314,-3.835l6.134,-3.542l8.2,2.198c2.459,0.659 4.99,-0.803 5.649,-3.262l2.388,-8.911c0.659,-2.459 -0.803,-4.99 -3.262,-5.649l-8.911,-2.388c-2.459,-0.659 -4.99,0.803 -5.649,3.262l-2.197,8.2l-6.134,3.541l3.835,-14.314c0.27,-1.008 -0.329,-2.046 -1.337,-2.316l-3.653,-0.979c-1.008,-0.27 -2.046,0.329 -2.316,1.338l-5.793,21.62l-5.233,3.021l-23.955,-13.831l0,-6.042l15.827,-15.827c0.738,-0.738 0.738,-1.936 0,-2.674l-2.674,-2.674c-0.738,-0.739 -1.937,-0.739 -2.675,-0l-10.478,10.478l0,-7.083l6.003,-6.003c1.8,-1.8 1.8,-4.723 -0,-6.523l-6.523,-6.523c-1.801,-1.8 -4.723,-1.8 -6.524,-0l-6.523,6.523c-1.8,1.8 -1.8,4.723 0,6.523l6.003,6.003l-0,7.083l-10.478,-10.478c-0.738,-0.739 -1.937,-0.739 -2.675,-0l-2.674,2.674c-0.738,0.738 -0.738,1.936 -0,2.674l15.827,15.827l-0,6.042Zm7.564,59.54l16.262,-9.388l-16.262,-9.389l0,18.777Zm-23.826,-9.388l16.262,9.388l-0,-18.777l-16.262,9.389Zm27.608,-15.94l16.262,9.389l0,-18.778l-16.262,9.389Zm-31.39,9.389l16.262,-9.389l-16.262,-9.389l-0,18.778Zm3.782,-25.329l16.262,9.389l-0,-18.777l-16.262,9.388Zm23.826,9.389l16.262,-9.389l-16.262,-9.388l0,18.777Z" style="fill:#fff;"/></svg>