<?xml version="1.0" encoding="UTF-8" standalone="no"?><!DOCTYPE svg PUBLIC "-//W3C//DTD SVG 1.1//EN" "http://www.w3.org/Graphics/SVG/1.1/DTD/svg11.dtd"><svg width="100%" height="100%" viewBox="0 0 165 165" version="1.1" xmlns="http://www.w3.org/2000/svg" xmlns:xlink="http://www.w3.org/1999/xlink" xml:space="preserve" xmlns:serif="http://www.serif.com/" style="fill-rule:evenodd;clip-rule:evenodd;stroke-linecap:round;stroke-linejoin:round;stroke-miterlimit:1.5;"><rect id="Artboard1" x="0" y="0" width="164.672" height="164.672" style="fill:none;"/><clipPath id="_clip1"><rect x="0" y="0" width="164.672" height="164.672"/></clipPath><g clip-path="url(#_clip1)"><path d="M82.396,0.108c-9.739,18.544 -11.898,37.932 -6.477,58.163c-5.421,-20.231 -16.985,-35.942 -34.691,-47.132c0.837,20.929 8.661,38.799 23.472,53.61c-14.811,-14.811 -32.68,-22.635 -53.609,-23.472c11.189,17.706 26.9,29.269 47.132,34.691c-20.232,-5.422 -39.62,-3.263 -58.163,6.477c18.543,9.739 37.931,11.898 58.163,6.477c-20.232,5.421 -35.943,16.985 -47.132,34.691c20.929,-0.838 38.798,-8.662 53.609,-23.472c-14.811,14.81 -22.635,32.68 -23.472,53.609c17.706,-11.19 29.27,-26.9 34.691,-47.132c-5.421,20.232 -3.262,39.619 6.477,58.163c9.739,-18.544 11.898,-37.931 6.477,-58.163c5.421,20.232 16.985,35.942 34.691,47.132c-0.837,-20.929 -8.661,-38.799 -23.472,-53.609c14.811,14.81 32.681,22.634 53.609,23.472c-11.189,-17.706 -26.9,-29.27 -47.132,-34.691c20.232,5.421 39.62,3.262 58.163,-6.477c-18.543,-9.74 -37.931,-11.899 -58.163,-6.477c20.232,-5.422 35.943,-16.985 47.132,-34.691c-20.928,0.837 -38.798,8.661 -53.609,23.472c14.811,-14.811 22.635,-32.681 23.472,-53.61c-17.706,11.19 -29.27,26.901 -34.691,47.132c5.421,-20.231 3.262,-39.619 -6.477,-58.163Zm0,54.9c-3.245,6.179 -3.965,12.64 -2.158,19.381c-1.807,-6.741 -5.66,-11.977 -11.56,-15.705c0.279,6.974 2.886,12.929 7.821,17.864c-4.935,-4.935 -10.89,-7.543 -17.864,-7.822c3.729,5.901 8.964,9.754 15.706,11.56c-6.742,-1.806 -13.203,-1.087 -19.382,2.159c6.179,3.245 12.64,3.965 19.382,2.158c-6.742,1.807 -11.977,5.66 -15.706,11.56c6.974,-0.279 12.929,-2.886 17.864,-7.821c-4.935,4.935 -7.542,10.89 -7.821,17.864c5.9,-3.729 9.753,-8.964 11.56,-15.706c-1.807,6.742 -1.087,13.202 2.158,19.381c3.245,-6.179 3.965,-12.639 2.158,-19.381c1.807,6.742 5.66,11.977 11.56,15.706c-0.279,-6.974 -2.886,-12.929 -7.821,-17.864c4.935,4.935 10.89,7.542 17.864,7.821c-3.729,-5.9 -8.964,-9.753 -15.706,-11.56c6.742,1.807 13.203,1.087 19.382,-2.158c-6.179,-3.246 -12.64,-3.965 -19.382,-2.159c6.742,-1.806 11.977,-5.659 15.706,-11.56c-6.974,0.279 -12.929,2.887 -17.864,7.822c4.935,-4.935 7.542,-10.89 7.821,-17.864c-5.9,3.728 -9.753,8.964 -11.56,15.705c1.807,-6.741 1.087,-13.202 -2.158,-19.381Z" style="fill:#fff;stroke:#f0f0f0;stroke-width:0.91px;"/></g></svg>