<?xml version="1.0" encoding="UTF-8" standalone="no"?><!DOCTYPE svg PUBLIC "-//W3C//DTD SVG 1.1//EN" "http://www.w3.org/Graphics/SVG/1.1/DTD/svg11.dtd"><svg width="37px" height="35px" viewBox="0 0 37 35" version="1.1" xmlns="http://www.w3.org/2000/svg" xmlns:xlink="http://www.w3.org/1999/xlink" xml:space="preserve" xmlns:serif="http://www.serif.com/" style="fill-rule:evenodd;clip-rule:evenodd;stroke-linejoin:round;stroke-miterlimit:2;"><g id="Level"></g><rect id="Artboard8" x="0" y="0" width="36.837" height="34.145" style="fill:none;"/><path d="M14.846,17.051c0,2.048 0.312,3.841 0.937,5.38c0.624,1.54 1.481,2.309 2.57,2.309c1.089,0 1.946,-0.769 2.571,-2.309c0.624,-1.539 0.936,-3.325 0.936,-5.358c0,-2.033 -0.312,-3.776 -0.936,-5.228c-0.625,-1.452 -1.482,-2.179 -2.571,-2.179c-1.089,0 -1.946,0.719 -2.57,2.157c-0.625,1.438 -0.937,3.18 -0.937,5.228Zm11.153,14.856c-2.265,0.915 -4.792,1.372 -7.581,1.372c-2.788,0 -5.315,-0.457 -7.58,-1.372c-2.266,-0.915 -4.103,-2.142 -5.511,-3.681c-1.409,-1.54 -2.483,-3.261 -3.224,-5.163c-0.741,-1.902 -1.111,-3.885 -1.111,-5.947c-0,-2.062 0.37,-4.051 1.111,-5.968c0.741,-1.917 1.815,-3.645 3.224,-5.185c1.408,-1.539 3.245,-2.773 5.511,-3.703c2.265,-0.929 4.792,-1.394 7.58,-1.394c2.789,0 5.316,0.465 7.581,1.394c2.265,0.93 4.102,2.164 5.511,3.703c1.409,1.54 2.483,3.268 3.224,5.185c0.741,1.917 1.111,3.906 1.111,5.968c-0,2.062 -0.37,4.045 -1.111,5.947c-0.741,1.902 -1.815,3.623 -3.224,5.163c-1.409,1.539 -3.246,2.766 -5.511,3.681Z" style="fill:#1ea7e1;fill-rule:nonzero;"/></svg>