<?xml version="1.0" encoding="UTF-8" standalone="no"?><!DOCTYPE svg PUBLIC "-//W3C//DTD SVG 1.1//EN" "http://www.w3.org/Graphics/SVG/1.1/DTD/svg11.dtd"><svg  width="37px" height="35px" viewBox="0 0 37 35" version="1.1" xmlns="http://www.w3.org/2000/svg" xmlns:xlink="http://www.w3.org/1999/xlink" xml:space="preserve" xmlns:serif="http://www.serif.com/" style="fill-rule:evenodd;clip-rule:evenodd;stroke-linejoin:round;stroke-miterlimit:2;"><g id="Level"></g><rect id="Artboard9" x="0" y="0" width="36.837" height="34.145" style="fill:none;"/><path d="M26.13,1.716c1.22,-0 2.026,0.305 2.418,0.914c0.392,0.61 0.631,1.627 0.718,3.05c0.233,3.34 0.349,7.385 0.349,12.133c-0,4.749 -0.145,8.677 -0.436,11.785c-0.087,0.668 -0.385,1.263 -0.893,1.786c-0.508,0.523 -1.183,0.813 -2.026,0.872c-1.655,0.116 -3.572,0.174 -5.75,0.174c-2.179,-0 -4.241,-0.058 -6.187,-0.174c-0.871,-0.059 -1.568,-0.356 -2.091,-0.894c-0.523,-0.537 -0.799,-1.125 -0.828,-1.764c-0.232,-3.979 -0.348,-7.777 -0.348,-11.393c-0,-3.616 0.014,-6.019 0.043,-7.21l-1.96,-0.13c-1.278,-0.088 -1.917,-0.908 -1.917,-2.462c-0,-1.554 0.131,-2.585 0.392,-3.093c0.261,-0.508 0.915,-0.864 1.961,-1.068c5.779,-1.19 11.298,-2.033 16.555,-2.526Z" style="fill:#1ea7e1;fill-rule:nonzero;"/></svg>