<?xml version="1.0" encoding="UTF-8" standalone="no"?><!DOCTYPE svg PUBLIC "-//W3C//DTD SVG 1.1//EN" "http://www.w3.org/Graphics/SVG/1.1/DTD/svg11.dtd"><svg  width="37px" height="35px" viewBox="0 0 37 35" version="1.1" xmlns="http://www.w3.org/2000/svg" xmlns:xlink="http://www.w3.org/1999/xlink" xml:space="preserve" xmlns:serif="http://www.serif.com/" style="fill-rule:evenodd;clip-rule:evenodd;stroke-linejoin:round;stroke-miterlimit:2;"><g id="Level"></g><rect id="Artboard10" x="0" y="0" width="36.837" height="34.145" style="fill:none;"/><path d="M2.517,31.145l-0.392,-2.397c-0.058,-0.261 -0.087,-0.522 -0.087,-0.784c-0,-0.958 0.377,-1.713 1.132,-2.265c2.992,-2.149 5.657,-4.444 7.995,-6.884c2.338,-2.439 3.507,-4.472 3.507,-6.099c-0,-1.133 -0.363,-2.055 -1.089,-2.766c-0.727,-0.712 -1.554,-1.068 -2.484,-1.068c-2.12,0 -4.124,0.843 -6.012,2.527c-0.29,0.291 -0.639,0.392 -1.045,0.305c-1.278,-0.261 -1.917,-1.67 -1.917,-4.226c-0,-0.871 0.196,-1.554 0.588,-2.047c0.392,-0.494 1.053,-0.973 1.982,-1.438c3.689,-1.801 7.907,-2.701 12.656,-2.701c4.749,-0 8.285,0.82 10.608,2.461c2.324,1.641 3.486,3.754 3.486,6.339c-0,2.585 -0.676,4.836 -2.026,6.753c-1.351,1.917 -3.435,4.008 -6.252,6.273c-0.61,0.465 -0.915,0.901 -0.915,1.307c0,0.494 0.407,0.741 1.22,0.741l0.174,0l9.454,-0.392l0.087,-0c0.494,-0 0.886,0.312 1.177,0.937c0.29,0.624 0.435,1.539 0.435,2.744c0,1.206 -0.203,2.208 -0.61,3.006c-0.406,0.799 -1.219,1.213 -2.439,1.242c-4.299,0.087 -8.532,0.131 -12.7,0.131c-4.168,-0 -7.5,-0.029 -9.998,-0.087c-2.498,-0.059 -3.885,-0.095 -4.161,-0.109c-0.276,-0.015 -0.624,-0.066 -1.045,-0.153c-0.422,-0.087 -0.727,-0.239 -0.915,-0.457c-0.189,-0.218 -0.327,-0.516 -0.414,-0.893Z" style="fill:#1ea7e1;fill-rule:nonzero;"/></svg>