<?xml version="1.0" encoding="UTF-8" standalone="no"?><!DOCTYPE svg PUBLIC "-//W3C//DTD SVG 1.1//EN" "http://www.w3.org/Graphics/SVG/1.1/DTD/svg11.dtd"><svg width="37px" height="35px" viewBox="0 0 37 35" version="1.1" xmlns="http://www.w3.org/2000/svg" xmlns:xlink="http://www.w3.org/1999/xlink" xml:space="preserve" xmlns:serif="http://www.serif.com/" style="fill-rule:evenodd;clip-rule:evenodd;stroke-linejoin:round;stroke-miterlimit:2;"><g id="Level"></g><rect id="Artboard11" x="0" y="0" width="36.837" height="34.145" style="fill:none;"/><path d="M5.697,24.305l5.489,0.218c1.627,-0 2.89,-0.364 3.791,-1.09c0.552,-0.435 0.827,-1.016 0.827,-1.742c0,-1.859 -1.118,-2.789 -3.354,-2.789c-0.813,0 -1.743,0.102 -2.788,0.305c-1.046,0.204 -1.67,0.305 -1.874,0.305c-1.249,0 -1.873,-1.06 -1.873,-3.18c-0,-0.9 0.16,-1.481 0.479,-1.743c0.32,-0.261 0.726,-0.421 1.22,-0.479c0.494,-0.058 1.147,-0.094 1.961,-0.109c0.813,-0.014 1.524,-0.036 2.134,-0.065c1.714,-0.145 2.905,-0.479 3.573,-1.002c0.668,-0.523 1.002,-1.191 1.002,-2.004c-0,-0.813 -0.298,-1.438 -0.893,-1.873c-0.596,-0.436 -1.358,-0.654 -2.288,-0.654c-1.829,0 -3.688,0.813 -5.576,2.44c-0.291,0.232 -0.632,0.348 -1.024,0.348c-0.392,0 -0.762,-0.247 -1.111,-0.74c-0.523,-0.668 -0.784,-1.627 -0.784,-2.876c-0,-1.249 0.196,-2.12 0.588,-2.614c0.392,-0.493 1.155,-1.024 2.287,-1.59c1.133,-0.566 2.832,-1.118 5.098,-1.655c2.265,-0.538 4.407,-0.806 6.426,-0.806c2.018,-0 3.695,0.123 5.032,0.37c1.336,0.247 2.657,0.661 3.964,1.242c1.307,0.58 2.36,1.423 3.159,2.526c0.798,1.104 1.198,2.404 1.198,3.9c-0,1.495 -0.392,2.824 -1.177,3.986c-0.784,1.162 -1.902,1.946 -3.354,2.352c1.946,0.698 3.412,1.743 4.4,3.137c0.987,1.394 1.481,2.948 1.481,4.662c0,3.311 -1.3,5.83 -3.899,7.559c-2.599,1.728 -5.845,2.592 -9.737,2.592c-7.029,-0 -11.908,-0.45 -14.638,-1.351c-1.307,-0.435 -2.048,-1.176 -2.222,-2.222c-0.058,-0.348 -0.087,-0.886 -0.087,-1.612c-0,-0.726 0.029,-1.263 0.087,-1.612c0.145,-1.423 0.973,-2.134 2.483,-2.134Z" style="fill:#1ea7e1;fill-rule:nonzero;"/></svg>