<?xml version="1.0" encoding="UTF-8" standalone="no"?><!DOCTYPE svg PUBLIC "-//W3C//DTD SVG 1.1//EN" "http://www.w3.org/Graphics/SVG/1.1/DTD/svg11.dtd"><svg  width="37px" height="35px" viewBox="0 0 37 35" version="1.1" xmlns="http://www.w3.org/2000/svg" xmlns:xlink="http://www.w3.org/1999/xlink" xml:space="preserve" xmlns:serif="http://www.serif.com/" style="fill-rule:evenodd;clip-rule:evenodd;stroke-linejoin:round;stroke-miterlimit:2;"><g id="Level"></g><rect id="Artboard12" x="0" y="0" width="36.837" height="34.145" style="fill:none;"/><path d="M34.015,25.938l-1.002,0.044c-0.029,0.987 -0.102,2.178 -0.218,3.572c-0.087,0.668 -0.385,1.264 -0.893,1.787c-0.508,0.522 -1.183,0.813 -2.026,0.871c-1.655,0.116 -3.572,0.174 -5.75,0.174c-2.179,0 -4.241,-0.058 -6.187,-0.174c-0.842,-0.058 -1.517,-0.349 -2.026,-0.871c-0.508,-0.523 -0.813,-1.22 -0.914,-2.092c-0.102,-0.871 -0.182,-1.96 -0.24,-3.267l-9.541,-0c-1.481,-0.058 -2.563,-0.254 -3.246,-0.588c-0.682,-0.334 -1.024,-0.98 -1.024,-1.939l-0.043,-2.047c-0,-1.162 0.29,-2.121 0.871,-2.876c3.544,-4.734 8.278,-10.136 14.203,-16.206c0.493,-0.378 1.191,-0.567 2.091,-0.567l11.676,0c1.22,0 2.026,0.305 2.418,0.915c0.392,0.61 0.646,1.764 0.762,3.464c0.116,1.699 0.174,5.424 0.174,11.174l0,1.743l0.915,-0c0.61,-0 1.082,0.211 1.416,0.632c0.334,0.421 0.501,0.878 0.501,1.372l0,2.527c0,1.51 -0.639,2.294 -1.917,2.352Zm-24.528,-7.667c0,0.523 0.276,0.784 0.828,0.784l4.357,-0l-0,-7.319c-0.581,0.639 -1.155,1.292 -1.721,1.96c-0.566,0.668 -1.147,1.351 -1.743,2.048c-0.595,0.697 -1.031,1.22 -1.307,1.568c-0.276,0.349 -0.414,0.668 -0.414,0.959Z" style="fill:#1ea7e1;fill-rule:nonzero;"/></svg>