<?xml version="1.0" encoding="UTF-8" standalone="no"?><!DOCTYPE svg PUBLIC "-//W3C//DTD SVG 1.1//EN" "http://www.w3.org/Graphics/SVG/1.1/DTD/svg11.dtd"><svg width="37px" height="35px" viewBox="0 0 37 35" version="1.1" xmlns="http://www.w3.org/2000/svg" xmlns:xlink="http://www.w3.org/1999/xlink" xml:space="preserve" xmlns:serif="http://www.serif.com/" style="fill-rule:evenodd;clip-rule:evenodd;stroke-linejoin:round;stroke-miterlimit:2;"><g id="Level"></g><rect id="Artboard13" x="0" y="0" width="36.837" height="34.145" style="fill:none;"/><path d="M30.29,4.678c0,2.672 -0.668,4.008 -2.004,4.008l-9.454,-0.131c-0.726,0 -1.132,0.218 -1.22,0.654c-0.174,0.697 -0.261,1.22 -0.261,1.568c0,0.697 0.291,1.046 0.871,1.046c0.378,-0.029 0.93,-0.044 1.656,-0.044c4.066,0 7.188,0.966 9.367,2.898c2.178,1.931 3.267,4.32 3.267,7.166c0,2.847 -1.205,5.395 -3.616,7.646c-2.411,2.251 -5.663,3.376 -9.759,3.376c-6.128,0 -10.383,-0.45 -12.765,-1.35c-1.132,-0.407 -1.786,-1.133 -1.96,-2.178c-0.058,-0.349 -0.087,-0.821 -0.087,-1.416c-0,-0.596 0.087,-1.416 0.261,-2.462c0.116,-1.51 0.61,-2.265 1.481,-2.265c0.407,-0 1.169,0.123 2.288,0.37c1.118,0.247 1.996,0.37 2.635,0.37c2.934,0 4.401,-1.118 4.401,-3.354c-0,-0.813 -0.334,-1.511 -1.002,-2.091c-0.668,-0.581 -1.612,-0.872 -2.832,-0.872c-0.029,0 -1.089,0.087 -3.181,0.262c-0.9,-0 -1.539,-0.182 -1.916,-0.545c-0.378,-0.363 -0.567,-1.154 -0.567,-2.374c0,-1.22 0.291,-4.865 0.871,-10.935c0.088,-0.901 0.364,-1.569 0.828,-2.004c0.465,-0.436 1.206,-0.654 2.222,-0.654l11.589,-0.087c2.643,-0 4.56,0.022 5.75,0.065c1.191,0.044 1.975,0.211 2.353,0.501c0.523,0.407 0.784,1.351 0.784,2.832Z" style="fill:#1ea7e1;fill-rule:nonzero;"/></svg>