<?xml version="1.0" encoding="UTF-8" standalone="no"?><!DOCTYPE svg PUBLIC "-//W3C//DTD SVG 1.1//EN" "http://www.w3.org/Graphics/SVG/1.1/DTD/svg11.dtd"><svg width="37px" height="35px" viewBox="0 0 37 35" version="1.1" xmlns="http://www.w3.org/2000/svg" xmlns:xlink="http://www.w3.org/1999/xlink" xml:space="preserve" xmlns:serif="http://www.serif.com/" style="fill-rule:evenodd;clip-rule:evenodd;stroke-linejoin:round;stroke-miterlimit:2;"><g id="Level"></g><rect id="Artboard14" x="0" y="0" width="36.837" height="34.145" style="fill:none;"/><path d="M34.647,21.8c-0,3.514 -1.467,6.237 -4.4,8.168c-2.934,1.932 -6.463,2.897 -10.587,2.897c-6.012,0 -10.616,-1.437 -13.81,-4.313c-1.104,-0.987 -1.99,-2.265 -2.658,-3.833c-0.668,-1.569 -1.002,-3.282 -1.002,-5.141c0,-1.859 0.276,-3.631 0.828,-5.315c0.552,-1.685 1.43,-3.311 2.636,-4.88c1.205,-1.568 2.672,-2.955 4.4,-4.16c1.728,-1.206 3.87,-2.164 6.426,-2.876c2.556,-0.711 5.373,-1.067 8.452,-1.067c1.045,-0 2.265,0.073 3.659,0.218c0.959,0.116 1.714,0.617 2.266,1.503c0.551,0.886 0.827,1.851 0.827,2.897c0,1.046 -0.239,1.968 -0.718,2.766c-0.48,0.799 -1.199,1.198 -2.157,1.198c-0.9,-0.087 -1.772,-0.13 -2.614,-0.13c-1.917,-0 -3.427,0.312 -4.531,0.936c-1.104,0.625 -1.946,1.707 -2.527,3.246c1.569,-0.61 3.181,-0.915 4.836,-0.915c3.05,0 5.591,0.777 7.624,2.331c2.033,1.554 3.05,3.71 3.05,6.47Zm-13.462,0.893c-0,-1.118 -0.196,-2.033 -0.588,-2.745c-0.392,-0.712 -0.959,-1.067 -1.699,-1.067c-0.741,-0 -1.315,0.385 -1.721,1.154c-0.407,0.77 -0.61,1.721 -0.61,2.854c-0,1.133 0.218,2.018 0.653,2.657c0.436,0.639 0.966,0.959 1.591,0.959c0.624,-0 1.176,-0.356 1.655,-1.068c0.479,-0.711 0.719,-1.626 0.719,-2.744Z" style="fill:#1ea7e1;fill-rule:nonzero;"/></svg>