<?xml version="1.0" encoding="UTF-8" standalone="no"?><!DOCTYPE svg PUBLIC "-//W3C//DTD SVG 1.1//EN" "http://www.w3.org/Graphics/SVG/1.1/DTD/svg11.dtd"><svg width="37px" height="35px" viewBox="0 0 37 35" version="1.1" xmlns="http://www.w3.org/2000/svg" xmlns:xlink="http://www.w3.org/1999/xlink" xml:space="preserve" xmlns:serif="http://www.serif.com/" style="fill-rule:evenodd;clip-rule:evenodd;stroke-linejoin:round;stroke-miterlimit:2;"><g id="Level"></g><rect id="Artboard15" x="0" y="0" width="36.837" height="34.145" style="fill:none;"/><path d="M14.628,1.65l15.379,0.087c1.075,0 1.815,0.131 2.222,0.392c0.639,0.407 0.958,1.641 0.958,3.704c0,1.045 -0.181,1.938 -0.544,2.679c-0.363,0.741 -1.278,2.592 -2.745,5.555c-1.467,2.962 -2.49,5.01 -3.071,6.142c-1.801,3.631 -3.718,7.16 -5.751,10.587c-0.407,0.668 -0.791,1.118 -1.155,1.351c-0.363,0.232 -0.951,0.348 -1.764,0.348c-6.128,0 -10.253,-0.087 -12.373,-0.261c-1.423,-0.116 -2.135,-0.668 -2.135,-1.656c0,-0.552 0.233,-1.249 0.698,-2.091c2.526,-4.502 4.726,-8.299 6.6,-11.393c1.873,-3.093 3.028,-5.017 3.463,-5.772c0.436,-0.755 0.654,-1.249 0.654,-1.481c-0,-0.61 -0.334,-0.915 -1.002,-0.915c-0,-0 -2.803,0.058 -8.408,0.174c-0.61,0 -1.061,-0.269 -1.351,-0.806c-0.29,-0.537 -0.436,-1.191 -0.436,-1.96c0,-0.77 0.044,-1.569 0.131,-2.397c0.087,-0.827 0.32,-1.386 0.697,-1.677c0.378,-0.29 1.416,-0.465 3.115,-0.523c1.699,-0.058 3.972,-0.087 6.818,-0.087Z" style="fill:#1ea7e1;fill-rule:nonzero;"/></svg>