<?xml version="1.0" encoding="UTF-8" standalone="no"?><!DOCTYPE svg PUBLIC "-//W3C//DTD SVG 1.1//EN" "http://www.w3.org/Graphics/SVG/1.1/DTD/svg11.dtd"><svg width="37px" height="35px" viewBox="0 0 37 35" version="1.1" xmlns="http://www.w3.org/2000/svg" xmlns:xlink="http://www.w3.org/1999/xlink" xml:space="preserve" xmlns:serif="http://www.serif.com/" style="fill-rule:evenodd;clip-rule:evenodd;stroke-linejoin:round;stroke-miterlimit:2;"><g id="Level"></g><rect id="Artboard16" x="0" y="0" width="36.837" height="34.145" style="fill:none;"/><path d="M2.539,23.194c-0,-3.689 1.815,-6.332 5.445,-7.929c-2.527,-1.627 -3.79,-3.435 -3.79,-5.424c0,-1.99 0.726,-3.667 2.178,-5.032c2.701,-2.614 6.782,-3.921 12.243,-3.921c5.169,-0 9.061,1.133 11.675,3.398c1.336,1.162 2.004,2.527 2.004,4.095c0,2.527 -1.22,4.531 -3.659,6.012c3.775,1.946 5.663,4.793 5.663,8.539c0,2.121 -0.835,3.987 -2.505,5.599c-1.67,1.612 -3.761,2.802 -6.273,3.572c-2.513,0.77 -5.134,1.155 -7.864,1.155c-2.73,-0 -5.199,-0.349 -7.406,-1.046c-2.208,-0.697 -4.045,-1.823 -5.511,-3.376c-1.467,-1.554 -2.2,-3.435 -2.2,-5.642Zm18.341,0.218c-0,-1.249 -1.249,-2.498 -3.747,-3.747c-0.929,0.842 -1.394,1.793 -1.394,2.853c0,1.061 0.305,1.808 0.915,2.244c0.61,0.436 1.271,0.654 1.982,0.654c0.712,-0 1.264,-0.204 1.656,-0.61c0.392,-0.407 0.588,-0.872 0.588,-1.394Zm-4.967,-15.205c0,1.162 1.075,2.135 3.224,2.919c0.814,-0.726 1.22,-1.612 1.22,-2.658c0,-0.61 -0.189,-1.118 -0.566,-1.524c-0.378,-0.407 -0.908,-0.61 -1.59,-0.61c-0.683,-0 -1.235,0.188 -1.656,0.566c-0.421,0.378 -0.632,0.813 -0.632,1.307Z" style="fill:#1ea7e1;fill-rule:nonzero;"/></svg>