<?xml version="1.0" encoding="UTF-8" standalone="no"?><!DOCTYPE svg PUBLIC "-//W3C//DTD SVG 1.1//EN" "http://www.w3.org/Graphics/SVG/1.1/DTD/svg11.dtd"><svg width="37px" height="35px" viewBox="0 0 37 35" version="1.1" xmlns="http://www.w3.org/2000/svg" xmlns:xlink="http://www.w3.org/1999/xlink" xml:space="preserve" xmlns:serif="http://www.serif.com/" style="fill-rule:evenodd;clip-rule:evenodd;stroke-linejoin:round;stroke-miterlimit:2;"><g id="Level"></g><rect id="Artboard17" x="0" y="0" width="36.837" height="34.145" style="fill:none;"/><path d="M8.159,25.35l2.004,0.044c1.917,-0 3.543,-0.4 4.879,-1.198c1.336,-0.799 2.382,-2.2 3.137,-4.204c-1.801,0.813 -3.776,1.219 -5.925,1.219c-2.876,0 -5.228,-0.747 -7.058,-2.243c-1.83,-1.496 -2.745,-3.565 -2.745,-6.208c0,-2.643 0.727,-4.836 2.179,-6.579c2.759,-3.311 7.13,-4.966 13.113,-4.966c5.809,-0 10.209,1.452 13.201,4.356c1.045,1.017 1.88,2.309 2.505,3.878c0.624,1.568 0.936,3.427 0.936,5.576c0,2.149 -0.413,4.233 -1.241,6.252c-0.828,2.018 -2.113,3.892 -3.856,5.62c-1.742,1.728 -4.153,3.129 -7.232,4.204c-3.078,1.075 -6.694,1.685 -10.848,1.83l-0.61,-0c-0.755,-0 -1.648,-0.036 -2.679,-0.109c-1.031,-0.073 -1.83,-0.574 -2.396,-1.503c-0.567,-0.93 -0.85,-1.968 -0.85,-3.115c0,-1.147 0.313,-1.91 0.937,-2.287c0.624,-0.378 1.474,-0.567 2.549,-0.567Zm7.101,-14.115c-0,1.103 0.218,2.033 0.653,2.788c0.436,0.755 1.017,1.126 1.743,1.111c0.726,-0.015 1.278,-0.378 1.656,-1.089c0.377,-0.712 0.566,-1.634 0.566,-2.767c-0,-1.132 -0.225,-2.04 -0.675,-2.723c-0.451,-0.682 -0.988,-1.023 -1.612,-1.023c-0.625,-0 -1.169,0.341 -1.634,1.023c-0.465,0.683 -0.697,1.576 -0.697,2.68Z" style="fill:#1ea7e1;fill-rule:nonzero;"/></svg>